# xmcd
#
# Track frame offsets:
#	150
#	21130
#	39905
#	54699
#	72632
#	89217
#	113245
#	123890
#	142799
#	156782
#	171120
#	184678
#	207276
#	231990
#	243565
#	257439
#	276463
#	288168
#	301348
#	317075
#
# Disc length: 4366 seconds
#
# Revision: 0
# Processed by: cddbd v1.5.1PL0 Copyright (c) Steve Scherf et al.
# Submitted via: dBpowerAMP V4.0
#
DISCID=23110c14
DTITLE=Keb'Mo - The Blues
DYEAR=1900
DGENRE=Blues
TTITLE0=Soon As I Get Paid
TTITLE1=Come On In My Kitchen
TTITLE2=Perpetual Blues Machine
TTITLE3=Don't Try To Explain
TTITLE4=I'm on your Side
TTITLE5=Henry
TTITLE6=Am I Wrong
TTITLE7=A Letter To Tracy
TTITLE8=Love In Vain
TTITLE9=Dirty Low Down And Bad
TTITLE10=Every Morning
TTITLE11=Dangerous Mood
TTITLE12=It Hurt Me Too
TTITLE13=Crapped Out Again
TTITLE14=Love Blues
TTITLE15=Peace Of mind
TTITLE16=?
TTITLE17=?
TTITLE18=?
TTITLE19=?
EXTD=The Blues\nKeb'Mo
EXTT0=
EXTT1=
EXTT2=
EXTT3=
EXTT4=
EXTT5=
EXTT6=
EXTT7=
EXTT8=
EXTT9=
EXTT10=
EXTT11=
EXTT12=
EXTT13=
EXTT14=
EXTT15=
EXTT16=
EXTT17=
EXTT18=
EXTT19=
PLAYORDER=
